<?xml version="1.0" standalone="no"?>
<!DOCTYPE svg PUBLIC "-//W3C//DTD SVG 20010904//EN"
 "http://www.w3.org/TR/2001/REC-SVG-20010904/DTD/svg10.dtd">
<svg version="1.0" xmlns="http://www.w3.org/2000/svg"
 width="818.000000pt" height="818.000000pt" viewBox="0 0 818.000000 818.000000"
 preserveAspectRatio="xMidYMid meet">
<metadata>
Created by potrace 1.11, written by Peter Selinger 2001-2013
</metadata>
<g transform="translate(0.000000,818.000000) scale(0.100000,-0.100000)"
fill="#000000" stroke="none">
<path d="M314 6573 c-35 -17 -64 -68 -64 -112 0 -15 11 -43 23 -62 13 -19 151
-162 306 -319 155 -157 499 -505 764 -774 265 -268 680 -689 923 -934 l441
-445 58 6 c32 3 61 10 64 14 3 5 24 17 46 27 65 30 222 104 340 161 136 65
297 142 435 207 58 27 112 53 120 59 8 5 22 12 30 15 22 9 132 61 315 149 88
43 187 90 220 105 33 15 132 62 220 105 88 42 196 94 240 115 44 21 139 66
210 100 72 34 162 77 200 95 142 66 372 177 437 211 38 19 71 35 75 36 9 2
204 94 423 200 80 39 177 85 215 103 39 18 133 63 210 100 77 37 176 84 220
105 44 20 136 64 205 97 192 93 358 172 435 208 119 56 388 184 425 203 98 50
104 178 10 227 -26 13 -481 15 -3772 14 -3367 0 -3746 -2 -3774 -16z m631
-232 c92 2 95 2 155 -1 25 -1 104 -2 175 -1 72 1 169 1 218 1 157 0 171 0 252
1 44 1 87 1 95 1 52 -2 267 -2 385 -1 44 1 89 1 100 1 11 -1 65 -1 120 -1 55
0 118 0 140 0 22 0 76 0 120 0 44 1 87 1 95 1 23 -1 209 -2 260 -2 108 1 176
1 190 1 8 0 51 0 95 0 44 1 87 1 95 1 50 -2 368 -3 490 -1 36 0 72 0 80 0 8 0
44 0 80 0 36 0 72 0 80 0 8 0 44 0 80 0 36 0 72 0 80 0 8 0 60 0 115 1 55 0
107 0 115 0 60 -2 269 -2 385 -1 44 1 87 1 95 1 52 -2 267 -2 385 -1 44 1 89
1 100 1 11 -1 65 -1 120 -1 55 1 109 1 120 1 11 0 49 -1 85 -1 36 0 72 0 80 0
8 0 44 0 80 0 36 0 72 0 80 0 8 0 44 0 80 0 36 0 72 0 80 0 8 0 53 0 100 0 47
0 92 0 100 0 8 0 51 0 95 0 44 1 87 1 95 1 28 -1 214 -2 340 -2 69 0 157 -1
195 -1 l70 0 -60 -30 c-93 -45 -472 -227 -545 -261 -36 -17 -120 -57 -188 -89
-67 -33 -125 -59 -128 -59 -3 0 -19 -9 -35 -21 -16 -11 -29 -18 -29 -15 0 3
-35 -12 -77 -33 -133 -66 -278 -135 -283 -136 -3 -1 -63 -30 -135 -64 -71 -35
-168 -81 -215 -103 -248 -118 -303 -145 -394 -189 -55 -27 -104 -49 -109 -49
-6 0 -18 -7 -28 -16 -9 -8 -23 -17 -31 -18 -7 -1 -51 -21 -98 -43 -47 -22
-139 -66 -205 -98 -66 -32 -194 -93 -285 -137 -91 -44 -183 -87 -205 -96 -22
-8 -52 -24 -67 -34 -14 -10 -29 -18 -33 -18 -6 0 -87 -38 -315 -148 -74 -35
-175 -84 -225 -107 -49 -24 -144 -69 -210 -100 -66 -32 -165 -79 -220 -105
-55 -26 -153 -73 -217 -104 -65 -31 -121 -56 -124 -56 -4 0 -88 82 -186 183
-99 100 -449 454 -778 787 -329 333 -686 695 -794 805 -109 110 -232 235 -274
278 l-77 78 52 -2 c29 -2 55 -1 57 2 3 2 22 3 43 2 21 -2 74 -3 118 -2z"/>
<path d="M7748 5569 c-18 -10 -71 -36 -118 -58 -140 -65 -541 -256 -644 -307
-28 -13 -56 -24 -63 -24 -7 0 -13 -4 -13 -10 0 -5 -4 -10 -9 -10 -10 0 -129
-56 -581 -273 -63 -30 -164 -78 -225 -107 -242 -116 -336 -160 -460 -220 -71
-34 -173 -83 -225 -107 -52 -25 -135 -65 -185 -89 -49 -24 -95 -44 -102 -44
-7 0 -13 -4 -13 -10 0 -5 -4 -10 -9 -10 -8 0 -81 -33 -343 -159 -60 -28 -154
-73 -210 -100 -57 -27 -161 -77 -233 -111 -292 -140 -357 -170 -366 -170 -5 0
-9 -3 -9 -7 0 -5 -21 -17 -48 -27 -26 -11 -123 -56 -217 -101 -159 -77 -236
-114 -460 -220 -49 -24 -166 -79 -258 -124 -93 -45 -174 -78 -179 -75 -10 6
-235 233 -788 794 -1511 1532 -1539 1560 -1568 1571 -48 19 -99 8 -134 -28
l-33 -34 -3 -1916 -2 -1915 21 -37 c23 -42 63 -61 125 -61 21 0 48 0 59 0 11
0 43 1 70 1 59 1 52 1 138 -3 38 -2 71 0 74 5 2 4 9 5 14 1 6 -3 40 -5 77 -4
87 2 77 2 155 -2 38 -2 70 0 73 3 2 4 21 4 41 0 21 -3 58 -4 83 -1 25 3 55 2
67 -2 12 -4 25 -3 28 3 4 5 10 7 15 4 11 -7 239 -10 245 -3 3 3 22 2 43 -1 20
-3 57 -4 82 -1 25 3 55 2 67 -2 12 -4 25 -3 28 3 4 5 10 7 15 4 12 -8 179 -9
186 -2 3 3 12 3 19 1 22 -9 115 -9 115 -1 0 5 4 5 10 2 8 -5 41 -6 140 -4 8 0
68 -1 133 -2 64 -1 119 0 122 3 3 3 22 2 43 -1 20 -3 57 -4 82 -1 25 3 55 2
67 -2 12 -4 25 -3 28 3 4 5 10 7 15 4 12 -8 179 -9 186 -2 3 3 12 3 19 1 22
-9 115 -9 115 -1 0 5 4 5 10 2 8 -5 41 -6 140 -4 8 0 68 -1 133 -2 64 -1 119
0 122 3 3 3 22 2 43 -1 20 -3 57 -4 82 -1 25 3 55 2 67 -2 12 -4 25 -3 28 3 4
5 10 7 15 4 8 -5 223 -9 245 -5 6 1 15 1 20 0 6 -1 39 -1 75 0 84 2 75 2 153
-2 38 -2 71 0 74 5 2 4 9 5 14 1 6 -3 40 -5 77 -4 87 2 77 2 155 -2 38 -2 71
0 74 5 2 4 9 5 14 1 6 -3 40 -5 77 -4 87 2 77 2 155 -2 38 -2 71 0 74 5 2 4 9
5 14 1 6 -3 40 -5 77 -4 87 2 77 2 155 -2 38 -2 71 0 74 5 2 4 9 5 14 1 6 -3
40 -5 77 -4 87 2 77 2 155 -2 38 -2 71 0 74 5 2 4 9 5 14 1 6 -3 40 -5 77 -4
87 2 77 2 155 -2 38 -2 71 0 74 5 2 4 9 5 14 1 6 -3 40 -5 77 -4 87 2 77 2
155 -2 38 -2 70 0 73 3 2 4 21 4 41 0 21 -3 58 -4 83 -1 25 3 55 2 67 -2 12
-4 25 -3 28 3 4 5 10 7 15 4 11 -7 239 -10 245 -3 3 3 22 2 43 -1 20 -3 57 -4
82 -1 25 3 55 2 67 -2 12 -4 25 -3 28 3 4 5 10 7 15 4 12 -8 179 -9 186 -2 3
3 12 3 19 1 22 -9 115 -9 115 -1 0 5 4 5 10 2 8 -5 41 -6 140 -4 8 0 67 0 130
-1 63 -1 120 -1 125 0 6 1 15 1 20 0 13 -2 118 -1 178 3 51 4 87 29 106 75 8
19 10 574 9 1939 l-3 1913 -31 31 c-42 42 -100 53 -146 28z m-68 -362 c0 -23
0 -51 0 -62 0 -11 0 -38 1 -60 0 -22 0 -47 0 -55 0 -8 0 -35 0 -60 0 -25 0
-51 0 -57 -1 -7 -1 -19 -2 -25 0 -7 0 -44 0 -83 0 -38 0 -77 0 -85 0 -8 0 -24
1 -35 1 -23 2 -113 1 -135 0 -8 0 -35 0 -60 0 -25 0 -51 0 -57 -1 -7 -1 -19
-2 -25 0 -7 0 -44 0 -83 0 -38 0 -77 0 -85 0 -8 0 -24 1 -35 1 -23 2 -113 1
-135 0 -8 0 -35 0 -60 0 -25 0 -51 0 -57 -1 -7 -1 -19 -2 -25 0 -7 0 -44 0
-83 0 -38 0 -77 0 -85 0 -8 0 -24 1 -35 1 -23 2 -113 1 -135 0 -8 0 -35 0 -60
0 -25 0 -51 0 -57 -1 -7 -1 -19 -2 -25 0 -13 0 -136 0 -170 1 -22 1 -62 0 -85
0 -10 0 -56 0 -103 0 -47 0 -309 -1 -583 l0 -499 -1098 1098 c-977 977 -1097
1100 -1081 1111 10 6 38 20 62 29 24 9 51 23 60 31 8 7 19 13 23 13 6 0 50 20
356 168 69 33 166 79 215 102 50 23 135 64 190 90 55 26 152 72 215 103 140
66 291 138 468 223 73 35 137 64 142 64 6 0 10 5 10 10 0 6 3 9 8 8 8 -2 48
16 254 116 75 36 142 66 148 66 5 0 10 5 10 11 0 5 4 8 10 4 5 -3 10 -25 10
-48z m-6217 -1031 c298 -302 555 -562 572 -577 l30 -29 -783 -781 -782 -782 0
1573 0 1573 211 -214 c116 -118 454 -461 752 -763z m4910 -1216 l1131 -1130
-3414 0 -3413 0 781 780 781 781 218 -222 c206 -210 254 -249 303 -249 12 0
91 34 177 75 85 41 157 75 158 75 2 0 88 41 191 91 104 50 225 108 269 129
102 48 252 120 484 231 101 49 185 89 188 89 2 0 57 27 123 59 65 33 121 57
124 53 3 -3 6 0 6 6 0 7 4 12 9 12 5 0 76 32 158 71 81 39 206 98 278 132 71
34 168 81 215 104 47 23 89 42 94 42 4 1 517 -507 1139 -1129z"/>
</g>
</svg>
